<svg width="281" height="199" fill="none" xmlns="http://www.w3.org/2000/svg"><path d="M9.629 98.587c-7.84 46.982-3.755 66.398 126.408 77.54 108.79 9.313 121.069 9.601 128.591-35.473 11.147-66.802-64.48-111.607-134.094-123.224C60.919 5.814 17.468 51.605 9.629 98.587z" fill="#F8F9FA"/><path d="M33.799 118.162h200.769" stroke="#DADCE0" stroke-miterlimit="10" stroke-linecap="round"/><path d="M33.847 117.595c2.16-16.816 7.096-34.4 18.52-34.4 11.423 0 11.891 10.566 23.752 8.46 11.86-2.106 10.701-38.196 31.602-38.196 21.007 0 21.007 37.128 27.527 64.136 5.608 23.233 10.866 44.337 27.527 44.337 15.936 0 20.387-21.543 26.249-44.775 7.072-28.026 11.419-39.902 22.633-39.902 11.213 0 16.312 11.148 22.008 40.34" stroke="#8AB4F8" stroke-miterlimit="10" stroke-linecap="round" stroke-linejoin="round" stroke-dasharray="4 4"/><path d="M34.04 123.404a5 5 0 1 0 0-10 5 5 0 0 0 0 10zm199.867 0a5 5 0 1 0 0-10 5 5 0 0 0 0 10zm-98.958 0a5 5 0 1 0 0-10 5 5 0 0 0 0 10zm54.238 0a5 5 0 1 0 0-10 5 5 0 0 0 0 10z" fill="#8AB4F8"/></svg>